<?xml version="1.0" encoding="utf-8"?>
<!-- Generator: Adobe Illustrator 24.3.0, SVG Export Plug-In . SVG Version: 6.00 Build 0)  -->
<svg version="1.1" xmlns="http://www.w3.org/2000/svg" xmlns:xlink="http://www.w3.org/1999/xlink" x="0px" y="0px"
	 viewBox="0 0 299.22 299.22" style="enable-background:new 0 0 299.22 299.22;" xml:space="preserve">
<style type="text/css">
	.st0{fill:#EBEBEB;}
	.st1{fill:#27DEBF;}
	.st2{opacity:0.1;}
	.st3{fill:#FFFFFF;}
	.st4{fill:#FAFAFA;}
	.st5{fill:#E0E0E0;}
	.st6{fill:#455A64;}
	.st7{opacity:0.4;fill:#FFFFFF;}
	.st8{opacity:0.2;}
	.st9{fill:#FAFAFA;stroke:#E0E0E0;stroke-width:1.1698;stroke-miterlimit:10;}
	.st10{fill:#37474F;}
</style>
<g id="Floor">
</g>
<g id="Shadows">
</g>
<g id="Plants">
</g>
<g id="Computer_Screen">
</g>
<g id="Envelope">
</g>
<g id="Mobile_Screen">
</g>
<g id="Key">
	<g>
		<path id="Shadow_37_" class="st0" d="M198.19,206.19c1.83,1.06,5.43,0.69,8.04-0.81l15.03-8.73c2.61-1.51,3.23-3.59,1.4-4.64
			c-1.83-1.06-5.44-0.7-8.04,0.81l-15.02,8.73C196.99,203.05,196.36,205.13,198.19,206.19z"/>
		<polygon id="Shadow_36_" class="st0" points="107.69,214.24 92.4,205.41 107.69,196.58 		"/>
		<polygon id="Shadow_35_" class="st0" points="150.91,219.52 126.26,205.28 150.91,191.07 		"/>
		<g id="Plants_14_">
			<g id="XMLID_3252_">
				<g id="XMLID_3255_">
					<path id="XMLID_3276_" class="st1" d="M87.01,193.6c0.04-3.58-2.45-11.02-6.11-15.7c-3.66-4.69-9.45-8.15-13.61-6.79
						c-3.88,1.27-3.52,6.34,1.12,9.76c4.64,3.41,11.63,7.71,13.62,13.54l4.24,7.17L87.01,193.6z"/>
					<path id="XMLID_3256_" class="st2" d="M87.01,193.6c0.04-3.58-2.45-11.02-6.11-15.7c-3.66-4.69-9.45-8.15-13.61-6.79
						c-3.88,1.27-3.52,6.34,1.12,9.76c4.64,3.41,11.63,7.71,13.62,13.54l4.24,7.17L87.01,193.6z"/>
				</g>
				<g id="XMLID_3253_">
					<path id="XMLID_3254_" class="st3" d="M87.21,198.5c-0.11-0.01-0.21-0.1-0.23-0.21c-2.25-12.24-12.01-22.28-17.89-24.54
						c-0.13-0.05-0.2-0.2-0.15-0.34c0.05-0.13,0.2-0.2,0.34-0.15c6,2.31,15.93,12.51,18.22,24.94c0.03,0.14-0.07,0.28-0.21,0.3
						C87.26,198.5,87.24,198.5,87.21,198.5z"/>
				</g>
			</g>
			<g id="XMLID_3246_">
				<g id="XMLID_3250_">
					<path id="XMLID_3251_" class="st1" d="M85.3,206.29c-0.55-2.02-2.97-5.36-6.9-8.15c-4.36-3.08-9.9-4.55-11.15-6.92
						c-1.51-2.85,0.92-5.5,5.42-4.89c4.51,0.61,12.37,6.87,13.52,16.15L85.3,206.29z"/>
				</g>
				<g id="XMLID_3247_">
					<path id="XMLID_3249_" class="st3" d="M86.2,204.19c-0.1-0.01-0.19-0.07-0.22-0.18c-3.62-10.5-11.55-14.27-15.24-14.8
						c-0.14-0.02-0.24-0.15-0.22-0.3c0.02-0.14,0.15-0.24,0.3-0.22c4.08,0.58,11.97,4.42,15.67,15.14c0.05,0.14-0.03,0.29-0.16,0.33
						C86.27,204.19,86.23,204.19,86.2,204.19z"/>
				</g>
			</g>
		</g>
		<g id="Plants_15_">
			<g id="XMLID_3135_">
				<path id="XMLID_3120_" class="st1" d="M220.47,183.42c0,0,0.5-7.54,4.95-13.14c4.44-5.6,4.17-7.9,1.11-9.03
					c-3.06-1.13-10.18,5.62-8.6,14.65C219.51,184.93,220.47,183.42,220.47,183.42z"/>
				<path id="XMLID_3134_" class="st2" d="M220.47,183.42c0,0,0.5-7.54,4.95-13.14c4.44-5.6,4.17-7.9,1.11-9.03
					c-3.06-1.13-10.18,5.62-8.6,14.65C219.51,184.93,220.47,183.42,220.47,183.42z"/>
				<g id="XMLID_3136_">
					<path id="XMLID_3137_" class="st3" d="M219.12,179.11c-0.09,0-0.17-0.07-0.17-0.16c-0.52-8.3,5.35-15.12,7.54-16.66
						c0.08-0.06,0.19-0.04,0.24,0.04c0.06,0.08,0.04,0.19-0.04,0.24c-2.15,1.51-7.9,8.2-7.39,16.35c0.01,0.1-0.07,0.18-0.16,0.19
						C219.12,179.11,219.12,179.11,219.12,179.11z"/>
				</g>
			</g>
			<g id="XMLID_3036_">
				<g id="XMLID_3073_">
					<path id="XMLID_3119_" class="st1" d="M219.27,189.65c0,0,2.68,0.93,6.12,1.47c3.44,0.54,4.96-1.1,4.96-1.1
						s-1.36-3.23-3.31-4.13c0,0,3.31,0.68,5.97,2.45c0,0,2.1,0.03,2.94-3.17c0,0-1.25-1.93-5.42-2.97c0,0,2.54-0.64,6.2,0.29
						c0.27,0.11,1.45-4.04,1.8-5.95c0.35-1.91-0.41-1.89-1.91-2.29c-1.49-0.4-6.43-1.51-7.36-0.69c-0.93,0.82-1.41,3.62-1.41,3.62
						s-0.62-1.65-0.14-3.55c0,0-1.34-0.52-3.42,0.08c-1.7,0.5-1.79,1.65-1.71,2.97c0.06,0.96,0.29,1.98,0.74,3.33
						c0,0-1.33-1.7-1.37-5.39c0,0-3.49,1.73-4.08,5.19C217.54,181.67,217.08,187.16,219.27,189.65z"/>
					<g id="XMLID_3093_">
						<path id="XMLID_3118_" class="st3" d="M219.92,188.97c0.07,0,0.14-0.04,0.17-0.11c2.78-5.77,13.1-12.47,16.8-13.19
							c0.1-0.02,0.17-0.12,0.15-0.23c-0.02-0.11-0.12-0.17-0.23-0.15c-3.76,0.73-14.25,7.54-17.07,13.4
							c-0.05,0.1-0.01,0.21,0.09,0.26C219.87,188.97,219.9,188.97,219.92,188.97z"/>
					</g>
				</g>
			</g>
		</g>
		<g id="XMLID_1118_">
			<g id="XMLID_1204_">
				<g id="XMLID_1203_">
					<path class="st4" d="M85.66,208.59c-0.28,0-0.32-0.36-0.32-0.58v-63.11l76.81-44.35l0,62.43c0,0.84-0.61,1.9-1.34,2.32
						L86.1,208.45C85.93,208.54,85.78,208.59,85.66,208.59L85.66,208.59z"/>
					<path class="st5" d="M161.57,101.57l0,61.42c0,0.62-0.51,1.5-1.05,1.81l-74.6,43.07v-62.63L161.57,101.57 M162.74,99.54
						l-77.98,45.02v63.45c0,0.74,0.37,1.16,0.9,1.16c0.22,0,0.47-0.07,0.73-0.22l74.72-43.14c0.9-0.52,1.63-1.78,1.63-2.82
						L162.74,99.54L162.74,99.54z"/>
				</g>
				<polygon id="XMLID_2173_" class="st1" points="84.76,144.57 84.76,155.16 162.74,110.14 162.74,99.54 				"/>
				<path id="XMLID_1167_" class="st4" d="M90.87,145.13l0,1.52c0,0.31,0.22,0.44,0.49,0.28l23.98-13.84l0-2.65l-23.98,13.84
					C91.09,144.44,90.87,144.82,90.87,145.13z"/>
				<path id="XMLID_1189_" class="st6" d="M117.91,128.96c0.27-0.16,0.49-0.03,0.49,0.28v1.52c0,0.31-0.22,0.69-0.49,0.85
					l-2.57,1.48l0-2.65L117.91,128.96z"/>
				<path id="XMLID_2992_" class="st6" d="M84.76,141.15c0-1.04,0.73-2.3,1.63-2.82l74.72-43.14c0.9-0.52,1.63-0.1,1.63,0.94v3.41
					l-77.98,45.02V141.15z"/>
				<g id="XMLID_1202_">
					<path id="XMLID_1201_" class="st1" d="M154.07,101.02c-0.42,0.24-0.76,0.84-0.76,1.32c0,0.49,0.34,0.69,0.76,0.44
						c0.42-0.24,0.76-0.84,0.76-1.32C154.84,100.98,154.49,100.78,154.07,101.02z"/>
					<path id="XMLID_1198_" class="st1" d="M156.49,99.62c-0.42,0.24-0.76,0.84-0.76,1.32c0,0.49,0.34,0.69,0.76,0.44
						c0.42-0.24,0.76-0.84,0.76-1.32C157.26,99.58,156.92,99.38,156.49,99.62z"/>
					<path id="XMLID_1196_" class="st1" d="M158.92,98.22c-0.42,0.24-0.76,0.84-0.76,1.32c0,0.49,0.34,0.69,0.76,0.44
						s0.76-0.84,0.76-1.32C159.68,98.18,159.34,97.98,158.92,98.22z"/>
				</g>
				<g id="XMLID_1168_" class="st2">
					<path id="XMLID_1187_" d="M138.27,117.04c-0.92,0.53-1.67,1.83-1.67,2.89c0,1.07,0.75,1.5,1.67,0.97
						c0.92-0.53,1.67-1.83,1.67-2.89S139.2,116.5,138.27,117.04z"/>
					<path id="XMLID_1188_" d="M130.63,121.45c-0.92,0.53-1.67,1.83-1.67,2.89c0,1.07,0.75,1.5,1.67,0.97s1.67-1.83,1.67-2.89
						S131.55,120.92,130.63,121.45z"/>
					<path id="XMLID_1186_" d="M145.92,112.62c-0.92,0.53-1.67,1.83-1.67,2.89c0,1.07,0.75,1.5,1.67,0.97
						c0.92-0.53,1.67-1.83,1.67-2.89S146.84,112.09,145.92,112.62z"/>
					<path id="XMLID_1190_" d="M153.56,108.2c-0.92,0.53-1.67,1.83-1.67,2.89c0,1.07,0.75,1.5,1.67,0.97
						c0.92-0.53,1.67-1.83,1.67-2.89S154.49,107.67,153.56,108.2z"/>
				</g>
			</g>
			<path id="XMLID_2170_" class="st5" d="M92.5,155.99l18.15-10.48c0.9-0.52,1.63-0.1,1.63,0.94v17.42c0,1.04-0.73,2.3-1.63,2.82
				L92.5,177.17c-0.9,0.52-1.63,0.1-1.63-0.94l0-17.42C90.87,157.77,91.6,156.51,92.5,155.99z"/>
			<path id="XMLID_3029_" class="st5" d="M118.5,140.98l38.02-21.95c0.9-0.52,1.63-0.1,1.63,0.94v17.42c0,1.04-0.73,2.3-1.63,2.82
				l-38.02,21.95c-0.9,0.52-1.63,0.1-1.63-0.94l0-17.42C116.87,142.76,117.6,141.5,118.5,140.98z"/>
			<g id="XMLID_3030_">
				<path id="XMLID_3117_" class="st5" d="M92.5,182.47l28.85-16.66c0.9-0.52,1.63-0.15,1.63,0.82s-0.73,2.19-1.63,2.71L92.5,186
					c-0.9,0.52-1.63,0.15-1.63-0.82C90.87,184.2,91.6,182.99,92.5,182.47z"/>
				<path id="XMLID_3095_" class="st5" d="M92.5,188.65l28.85-16.66c0.9-0.52,1.63-0.15,1.63,0.82s-0.73,2.19-1.63,2.71L92.5,192.18
					c-0.9,0.52-1.63,0.15-1.63-0.82C90.87,190.38,91.6,189.17,92.5,188.65z"/>
				<path id="XMLID_3094_" class="st5" d="M92.5,194.83l28.85-16.66c0.9-0.52,1.63-0.15,1.63,0.82c0,0.98-0.73,2.19-1.63,2.71
					L92.5,198.36c-0.9,0.52-1.63,0.15-1.63-0.82C90.87,196.56,91.6,195.35,92.5,194.83z"/>
			</g>
		</g>
		<g id="XMLID_3248_">
			<g id="Letter_2_">
				<g id="XMLID_3260_">
					<g id="XMLID_3261_">
						<path id="XMLID_3262_" class="st1" d="M106.16,173.88c0-0.62,0.44-1.38,0.98-1.69l50.03-28.89c0.54-0.31,1.42-0.31,1.96,0
							l1.1,0.64c0.54,0.31,0.98,1.07,0.98,1.69v38.35c0,0.62-0.44,1.38-0.98,1.69l-50.03,28.89c-0.54,0.31-1.42,0.31-1.96,0
							l-1.1-0.64c-0.54-0.31-0.98-1.07-0.98-1.69L106.16,173.88z"/>
					</g>
				</g>
				<path id="XMLID_3259_" class="st7" d="M106.45,172.91l2.78,1.6l51.7-29.85c-0.18-0.31-0.42-0.57-0.69-0.73l-1.11-0.63
					c-0.54-0.31-1.42-0.31-1.95,0l-50.03,28.88C106.87,172.34,106.63,172.61,106.45,172.91z"/>
				<path id="XMLID_3258_" class="st2" d="M106.16,173.88v38.35c0,0.62,0.44,1.38,0.98,1.69l1.1,0.64c0.08,0.05,0.17,0.09,0.27,0.12
					c0.12,0.04,0.26,0.07,0.4,0.09c0.25,0.03,0.52,0.02,0.77-0.03c0.06-0.01,0.13-0.03,0.19-0.05c0.04-0.01,0.08-0.03,0.12-0.05
					c-0.18,0.06-0.34,0.06-0.47-0.01c-0.19-0.1-0.3-0.32-0.3-0.64v-38.35c0-0.4,0.2-0.71,0.51-0.83l-0.51-0.3l-2.78-1.6
					C106.27,173.22,106.16,173.57,106.16,173.88z"/>
				<path id="XMLID_3257_" class="st8" d="M109.23,174.51l23.17,8.66c1.65,0.62,3.51,0,4.47-1.47l3.72-5.7l20.52-31.44l-19.78,31.66
					l19.88,7.78c0,0.31-0.12,0.67-0.31,0.98l-19.63-8.67l-4.32,6.92c-0.99,1.59-3,2.21-4.71,1.45l-3.08-1.36l-19.63,31.32
					c-0.19-0.1-0.3-0.32-0.3-0.64v-0.64l19.83-30.09L109.23,174.51z"/>
			</g>
		</g>
		<g id="XMLID_2171_">
			<path id="XMLID_2869_" class="st9" d="M150.51,130.49v88.05c0,1.04,0.73,1.46,1.63,0.94l39.55-22.84
				c0.9-0.52,1.63-1.78,1.63-2.82v-88.05c0-1.04-0.73-1.46-1.63-0.94l-39.55,22.84C151.24,128.18,150.51,129.45,150.51,130.49z"/>
			<path id="XMLID_2970_" class="st6" d="M152.8,132.13c0-0.24,0.19-0.55,0.42-0.69l4.51-2.6c0.23-0.14,0.42-0.05,0.42,0.2
				c0,0.24-0.19,0.55-0.42,0.69l-4.51,2.6C152.99,132.46,152.8,132.37,152.8,132.13z"/>
			<path id="XMLID_2972_" class="st6" d="M152.8,133.88c0-0.24,0.19-0.55,0.42-0.69l4.51-2.6c0.23-0.14,0.42-0.05,0.42,0.2
				c0,0.24-0.19,0.55-0.42,0.69l-4.51,2.6C152.99,134.21,152.8,134.12,152.8,133.88z"/>
			<path id="XMLID_2973_" class="st6" d="M152.8,135.63c0-0.24,0.19-0.55,0.42-0.69l4.51-2.6c0.23-0.14,0.42-0.05,0.42,0.2
				c0,0.24-0.19,0.55-0.42,0.69l-4.51,2.6C152.99,135.97,152.8,135.88,152.8,135.63z"/>
			<path id="XMLID_2989_" class="st10" d="M190.26,113.06v-0.7c0-0.04-0.03-0.06-0.07-0.04l-0.54,0.24c-0.04,0.02-0.08,0-0.09-0.04
				c-0.03-0.1-0.07-0.19-0.12-0.27c-0.02-0.04-0.03-0.09-0.01-0.13l0.36-0.73c0.02-0.04,0-0.09-0.03-0.11l-0.39-0.23
				c-0.04-0.02-0.08-0.01-0.11,0.03l-0.45,0.68c-0.02,0.03-0.08,0.06-0.12,0.06c-0.09,0-0.19,0.01-0.29,0.03
				c-0.04,0.01-0.08-0.02-0.08-0.06l-0.06-0.59c0-0.04-0.04-0.06-0.07-0.04l-0.61,0.35c-0.04,0.02-0.07,0.07-0.07,0.11l-0.06,0.68
				c0,0.04-0.03,0.1-0.06,0.13c-0.12,0.11-0.23,0.23-0.34,0.36c-0.03,0.03-0.08,0.05-0.12,0.03l-0.39-0.14
				c-0.04-0.01-0.09,0-0.11,0.04l-0.45,0.78c-0.02,0.04-0.01,0.09,0.02,0.12l0.31,0.27c0.03,0.03,0.05,0.08,0.03,0.12
				c-0.06,0.16-0.11,0.31-0.14,0.47c-0.01,0.04-0.04,0.09-0.08,0.12l-0.56,0.39c-0.03,0.02-0.06,0.08-0.06,0.12v0.7
				c0,0.04,0.03,0.06,0.07,0.04l0.54-0.24c0.04-0.02,0.08,0,0.09,0.04c0.03,0.1,0.07,0.19,0.12,0.27c0.02,0.04,0.03,0.09,0.01,0.13
				l-0.36,0.73c-0.02,0.04,0,0.09,0.03,0.11l0.39,0.23c0.04,0.02,0.08,0.01,0.11-0.03l0.45-0.68c0.02-0.03,0.08-0.06,0.12-0.06
				c0.09,0,0.19-0.01,0.29-0.03c0.04-0.01,0.08,0.02,0.08,0.06l0.06,0.59c0,0.04,0.04,0.06,0.07,0.04l0.61-0.35
				c0.04-0.02,0.07-0.07,0.07-0.11l0.06-0.68c0-0.04,0.03-0.1,0.06-0.13c0.12-0.11,0.23-0.23,0.34-0.36
				c0.03-0.03,0.08-0.05,0.12-0.03l0.39,0.14c0.04,0.01,0.09,0,0.11-0.04l0.45-0.78c0.02-0.04,0.01-0.09-0.02-0.12l-0.31-0.27
				c-0.03-0.03-0.05-0.08-0.03-0.12c0.06-0.16,0.11-0.31,0.14-0.47c0.01-0.04,0.04-0.09,0.08-0.12l0.56-0.39
				C190.23,113.15,190.26,113.1,190.26,113.06z M187.88,115.27c-0.57,0.33-1.03,0.06-1.03-0.59s0.46-1.45,1.03-1.78
				c0.57-0.33,1.03-0.06,1.03,0.59C188.91,114.14,188.45,114.94,187.88,115.27z"/>
			<g id="XMLID_3074_">
				<path id="XMLID_3091_" class="st6" d="M171.91,130.41c4.62-2.67,8.37-0.51,8.37,4.83s-3.75,11.83-8.37,14.49
					c-4.62,2.67-8.37,0.51-8.37-4.83C163.55,139.57,167.29,133.08,171.91,130.41z"/>
				<path id="XMLID_3076_" class="st1" d="M171.86,134.61c1.5-0.87,2.71-0.16,2.71,1.57c0,1.73-1.22,3.84-2.71,4.7
					c-1.5,0.87-2.71,0.16-2.71-1.57C169.14,137.58,170.36,135.48,171.86,134.61z"/>
				<path id="XMLID_3075_" class="st1" d="M177.21,143.84c0-2.84-2-4-4.46-2.58l-1.54,0.89c-2.46,1.42-4.46,4.88-4.46,7.73v0.78
					c0.44,0.15,0.93,0.22,1.44,0.22c1.12,0,2.39-0.37,3.73-1.14c2.01-1.16,3.85-3.04,5.29-5.23V143.84z"/>
			</g>
			<path id="XMLID_3140_" class="st1" d="M164.36,157.68l15.11-8.72c0.45-0.26,0.81-0.08,0.81,0.41c0,0.49-0.36,1.09-0.81,1.35
				l-15.11,8.72c-0.45,0.26-0.82,0.08-0.82-0.41S163.91,157.94,164.36,157.68z"/>
			<path id="XMLID_3142_" class="st6" d="M162.74,163.91l18.35-10.61c0.45-0.26,0.81-0.08,0.81,0.41s-0.36,1.09-0.81,1.35
				l-18.35,10.61c-0.45,0.26-0.81,0.08-0.81-0.41C161.92,164.78,162.29,164.17,162.74,163.91z"/>
			<path id="XMLID_3148_" class="st10" d="M181.58,161.86l5.14-2.97c0.27-0.16,0.49-0.08,0.49,0.16c0,0.24-0.22,0.57-0.49,0.72
				l-5.14,2.97c-0.27,0.16-0.49,0.08-0.49-0.16S181.31,162.01,181.58,161.86z"/>
			<g id="XMLID_3157_">
				<path id="XMLID_3141_" class="st1" d="M155.91,174.91l7.54-4.36c0.45-0.26,0.82-0.05,0.82,0.47v5.18c0,0.52-0.36,1.15-0.81,1.41
					l-7.54,4.36c-0.45,0.26-0.82,0.05-0.82-0.47v-5.18C155.09,175.81,155.46,175.17,155.91,174.91z"/>
				<path id="XMLID_3143_" class="st4" d="M157.11,175.64l5.14-2.97c0.27-0.16,0.49-0.08,0.49,0.16c0,0.24-0.22,0.57-0.49,0.72
					l-5.14,2.97c-0.27,0.16-0.49,0.08-0.49-0.16S156.84,175.79,157.11,175.64z"/>
				<path id="XMLID_3146_" class="st4" d="M156.62,178.25v1.52c0,0.31,0.22,0.44,0.49,0.28l5.14-2.97c0.27-0.16,0.49-0.54,0.49-0.85
					l0-1.52c0-0.31-0.22-0.44-0.49-0.28l-5.14,2.97C156.84,177.56,156.62,177.94,156.62,178.25z"/>
			</g>
			<g id="XMLID_3149_">
				<path id="XMLID_3155_" class="st1" d="M168.14,167.85l7.54-4.36c0.45-0.26,0.82-0.05,0.82,0.47l0,5.18
					c0,0.52-0.36,1.15-0.81,1.41l-7.54,4.36c-0.45,0.26-0.82,0.05-0.82-0.47l0-5.18C167.33,168.74,167.69,168.11,168.14,167.85z"/>
				<path id="XMLID_3154_" class="st4" d="M169.35,168.58l5.14-2.97c0.27-0.16,0.49-0.08,0.49,0.16c0,0.24-0.22,0.57-0.49,0.72
					l-5.14,2.97c-0.27,0.16-0.49,0.08-0.49-0.16S169.07,168.73,169.35,168.58z"/>
				<path id="XMLID_3153_" class="st4" d="M168.86,171.19v1.52c0,0.31,0.22,0.44,0.49,0.28l5.14-2.97c0.27-0.16,0.49-0.54,0.49-0.85
					l0-1.52c0-0.31-0.22-0.44-0.49-0.28l-5.14,2.97C169.07,170.5,168.86,170.88,168.86,171.19z"/>
			</g>
			<g id="XMLID_3159_">
				<path id="XMLID_3176_" class="st1" d="M180.37,160.79l7.54-4.36c0.45-0.26,0.82-0.05,0.82,0.47v5.18c0,0.52-0.36,1.15-0.81,1.41
					l-7.54,4.36c-0.45,0.26-0.82,0.05-0.82-0.47v-5.18C179.56,161.68,179.92,161.05,180.37,160.79z"/>
				<path id="XMLID_3173_" class="st4" d="M181.58,161.51l5.14-2.97c0.27-0.16,0.49-0.08,0.49,0.16c0,0.24-0.22,0.57-0.49,0.72
					l-5.14,2.97c-0.27,0.16-0.49,0.08-0.49-0.16S181.31,161.67,181.58,161.51z"/>
				<path id="XMLID_3163_" class="st4" d="M181.09,164.13v1.52c0,0.31,0.22,0.44,0.49,0.28l5.14-2.97c0.27-0.16,0.49-0.54,0.49-0.85
					l0-1.52c0-0.31-0.22-0.44-0.49-0.28l-5.14,2.97C181.31,163.44,181.09,163.81,181.09,164.13z"/>
			</g>
			<path id="XMLID_3144_" class="st5" d="M156.72,186.8l30.38-17.54c0.9-0.52,1.63-0.15,1.63,0.82c0,0.98-0.73,2.19-1.63,2.71
				l-30.38,17.54c-0.9,0.52-1.63,0.15-1.63-0.82C155.09,188.53,155.82,187.32,156.72,186.8z"/>
			<path id="XMLID_3147_" class="st5" d="M156.72,193.87l30.38-17.54c0.9-0.52,1.63-0.15,1.63,0.82c0,0.98-0.73,2.19-1.63,2.71
				l-30.38,17.54c-0.9,0.52-1.63,0.15-1.63-0.82S155.82,194.39,156.72,193.87z"/>
			<path id="XMLID_3178_" class="st1" d="M166.61,196.98l10.6-6.12c0.45-0.26,0.82-0.05,0.82,0.47l0,3.41
				c0,0.52-0.36,1.15-0.82,1.41l-10.6,6.12c-0.45,0.26-0.82,0.05-0.82-0.47l0-3.41C165.8,197.88,166.16,197.24,166.61,196.98z"/>
			<g id="XMLID_3180_">
				<path id="XMLID_3027_" class="st4" d="M157.39,187.32c-0.42,0.24-0.76,0.84-0.76,1.32s0.34,0.69,0.76,0.44
					c0.42-0.24,0.76-0.84,0.76-1.32C158.15,187.28,157.81,187.08,157.39,187.32z"/>
				<path id="XMLID_3023_" class="st4" d="M159.81,185.92c-0.42,0.24-0.76,0.84-0.76,1.32s0.34,0.69,0.76,0.44
					c0.42-0.24,0.76-0.84,0.76-1.32C160.57,185.88,160.23,185.68,159.81,185.92z"/>
				<path id="XMLID_3021_" class="st4" d="M162.23,184.52c-0.42,0.24-0.76,0.84-0.76,1.32s0.34,0.69,0.76,0.44
					c0.42-0.24,0.76-0.84,0.76-1.32C163,184.47,162.65,184.28,162.23,184.52z"/>
				<path id="XMLID_2993_" class="st4" d="M164.65,183.12c-0.42,0.24-0.76,0.84-0.76,1.32c0,0.49,0.34,0.69,0.76,0.44
					s0.76-0.84,0.76-1.32C165.42,183.07,165.08,182.88,164.65,183.12z"/>
				<path id="XMLID_2176_" class="st4" d="M167.08,181.72c-0.42,0.24-0.76,0.84-0.76,1.32s0.34,0.69,0.76,0.44
					c0.42-0.24,0.76-0.84,0.76-1.32C167.84,181.67,167.5,181.48,167.08,181.72z"/>
				<path id="XMLID_2175_" class="st4" d="M169.5,180.32c-0.42,0.24-0.76,0.84-0.76,1.32c0,0.49,0.34,0.69,0.76,0.44
					c0.42-0.24,0.76-0.84,0.76-1.32C170.26,180.27,169.92,180.08,169.5,180.32z"/>
				<path id="XMLID_2174_" class="st4" d="M171.92,178.92c-0.42,0.24-0.76,0.84-0.76,1.32c0,0.49,0.34,0.69,0.76,0.44
					c0.42-0.24,0.76-0.84,0.76-1.32C172.68,178.87,172.34,178.68,171.92,178.92z"/>
			</g>
			<g id="XMLID_2172_">
				<path id="XMLID_3020_" class="st4" d="M157.39,194.39c-0.42,0.24-0.76,0.84-0.76,1.32s0.34,0.69,0.76,0.44
					c0.42-0.24,0.76-0.84,0.76-1.32S157.81,194.15,157.39,194.39z"/>
				<path id="XMLID_3017_" class="st4" d="M159.81,192.99c-0.42,0.24-0.76,0.84-0.76,1.32s0.34,0.69,0.76,0.44
					c0.42-0.24,0.76-0.84,0.76-1.32C160.57,192.95,160.23,192.75,159.81,192.99z"/>
				<path id="XMLID_3016_" class="st4" d="M162.23,191.59c-0.42,0.24-0.76,0.84-0.76,1.32c0,0.49,0.34,0.69,0.76,0.44
					c0.42-0.24,0.76-0.84,0.76-1.32C163,191.55,162.65,191.35,162.23,191.59z"/>
				<path id="XMLID_3015_" class="st4" d="M164.65,190.19c-0.42,0.24-0.76,0.84-0.76,1.32s0.34,0.69,0.76,0.44s0.76-0.84,0.76-1.32
					S165.08,189.95,164.65,190.19z"/>
				<path id="XMLID_3008_" class="st4" d="M167.08,188.79c-0.42,0.24-0.76,0.84-0.76,1.32c0,0.49,0.34,0.69,0.76,0.44
					c0.42-0.24,0.76-0.84,0.76-1.32C167.84,188.74,167.5,188.55,167.08,188.79z"/>
				<path id="XMLID_2995_" class="st4" d="M169.5,187.39c-0.42,0.24-0.76,0.84-0.76,1.32s0.34,0.69,0.76,0.44
					c0.42-0.24,0.76-0.84,0.76-1.32C170.26,187.34,169.92,187.15,169.5,187.39z"/>
				<path id="XMLID_2994_" class="st4" d="M171.92,185.99c-0.42,0.24-0.76,0.84-0.76,1.32s0.34,0.69,0.76,0.44
					c0.42-0.24,0.76-0.84,0.76-1.32C172.68,185.94,172.34,185.75,171.92,185.99z"/>
			</g>
		</g>
		<g id="XMLID_1166_">
			<g id="XMLID_1191_">
				<g id="XMLID_1192_">
					<path id="XMLID_2975_" class="st6" d="M205.89,201.9c-1.32,0-2.57-0.33-3.71-0.98c-2.71-1.57-4.27-4.84-4.27-8.99
						c0-7.3,4.64-15.69,10.56-19.11c3.19-1.84,6.35-2.04,8.91-0.56c2.71,1.57,4.27,4.84,4.27,8.99c0,7.3-4.64,15.69-10.56,19.11
						C209.32,201.39,207.55,201.9,205.89,201.9z M213.67,176.54c-0.95,0-1.95,0.48-2.57,0.83c-4.3,2.48-7.93,9.15-7.93,14.56
						c0,2.19,0.61,3.85,1.64,4.45c1.17,0.68,2.8-0.06,3.66-0.56c4.3-2.48,7.93-9.15,7.93-14.56c0-2.19-0.61-3.85-1.64-4.45
						C214.43,176.62,214.05,176.54,213.67,176.54z"/>
				</g>
				<path id="XMLID_2986_" class="st10" d="M217.34,182.42c0-4.1-2.58-5.61-2.58-5.61l0,0c1.03,0.59,1.64,2.26,1.64,4.45
					c0,5.41-3.63,12.08-7.93,14.56c-0.87,0.5-2.49,1.24-3.66,0.56c0,0,2.18,1.35,5.19-0.29
					C214.36,193.71,217.34,187.83,217.34,182.42z"/>
			</g>
			<path id="XMLID_2978_" class="st10" d="M213.2,131.2c0-1.5-1.22-2.72-2.72-2.72c-1.5,0-2.72,1.22-2.72,2.72c0,0,0,0,0,0.01h0
				v43.18l0,0c0,0.4,0.27,0.8,0.8,1.11c1.06,0.61,2.78,0.61,3.84,0c0.53-0.31,0.8-0.71,0.8-1.11l0,0V131.2L213.2,131.2
				C213.2,131.2,213.2,131.2,213.2,131.2z"/>
			<path id="XMLID_2974_" class="st6" d="M211.03,140.85c0-1-0.7-2.22-1.57-2.72c-0.44-0.25-0.84-0.27-1.12-0.1l0,0l-6.7,3.86
				l-0.16,0.1c-0.02,0.01-0.05,0.02-0.07,0.04c-0.12,0.08-0.22,0.17-0.32,0.26c-0.41,0.4-0.66,0.96-0.66,1.57
				c0,0.84,0.47,1.57,1.15,1.95c0.32,0.17,0.68,0.27,1.06,0.27c0.38,0,0.74-0.1,1.06-0.27c0.04-0.02,0.08-0.05,0.13-0.07l6.74-3.88
				l0,0C210.86,141.69,211.03,141.34,211.03,140.85z"/>
			<path id="XMLID_2971_" class="st6" d="M211.03,151.66c0-1-0.7-2.22-1.57-2.72c-0.44-0.25-0.84-0.27-1.12-0.1l0,0l-7.85,4.51
				l-0.16,0.1c-0.02,0.01-0.05,0.02-0.07,0.04c-0.12,0.08-0.22,0.17-0.32,0.26c-0.41,0.4-0.66,0.96-0.66,1.57
				c0,0.84,0.47,1.57,1.15,1.95c0.32,0.17,0.68,0.27,1.06,0.27c0.38,0,0.74-0.1,1.06-0.27c0.04-0.02,0.08-0.05,0.13-0.07l7.89-4.53
				l0,0C210.86,152.5,211.03,152.16,211.03,151.66z"/>
		</g>
	</g>
</g>
</svg>
